<svg width="40" height="41" viewBox="0 0 40 41" fill="none" xmlns="http://www.w3.org/2000/svg">
<g clip-path="url(#clip0_679_54)">
<path opacity="0.1" d="M0 20.3083C0 31.354 8.95431 40.3083 20 40.3083C31.0457 40.3083 40 31.354 40 20.3083C40 9.26266 31.0457 0.30835 20 0.30835C8.95431 0.30835 0 9.26266 0 20.3083Z" fill="white"/>
<path fill-rule="evenodd" clip-rule="evenodd" d="M26.622 27.8199L29.5301 15.0835C29.6503 14.5442 29.5802 14.1567 29.3198 13.9242C29.0627 13.6949 28.7255 13.6484 28.3048 13.7971L11.2036 19.9158C10.8163 20.0522 10.5559 20.2041 10.419 20.3746C10.2821 20.5482 10.2621 20.7093 10.3722 20.8612C10.4757 21.0162 10.6861 21.134 11.0033 21.2208L15.3804 22.4885L25.5336 16.5558C25.8107 16.3822 26.0211 16.345 26.1646 16.4442C26.2548 16.5031 26.2314 16.5961 26.0878 16.717L17.8745 23.6106L17.5539 27.8013C17.8611 27.8013 18.1583 27.6649 18.4487 27.3953L20.5822 25.4859L25.0161 28.5142C25.8608 28.9575 26.395 28.725 26.622 27.8199Z" fill="#ADB1B8"/>
</g>
<defs>
<clipPath id="clip0_679_54">
<rect width="40" height="40" fill="white" transform="translate(0 0.30835)"/>
</clipPath>
</defs>
</svg>
