<svg width="40" height="41" viewBox="0 0 40 41" fill="none" xmlns="http://www.w3.org/2000/svg">
<path opacity="0.1" d="M0 20.3083C0 31.354 8.95431 40.3083 20 40.3083C31.0457 40.3083 40 31.354 40 20.3083C40 9.26266 31.0457 0.30835 20 0.30835C8.95431 0.30835 0 9.26266 0 20.3083Z" fill="white"/>
<path d="M27.1455 14.9626C27.1455 14.9626 25.7417 13.4763 22.5542 13.2612V13.7305C22.5542 13.7305 24.3025 13.629 26.4666 15.7592C24.833 14.584 22.5027 13.8478 19.9142 13.8478C17.3258 13.8478 14.9954 14.5839 13.3619 15.7592C15.526 13.629 17.2743 13.7305 17.2743 13.7305V13.2612C14.0868 13.4763 12.6829 14.9626 12.6829 14.9626C10.254 18.0912 10.1172 24.9355 10.1172 24.9355C12.4051 27.6927 15.2797 27.3409 15.2797 27.3409L16.3357 25.8157C14.974 25.4473 14.0015 24.6016 13.417 23.943C15.0477 25.0955 17.3546 25.8157 19.9142 25.8157C22.4738 25.8157 24.7808 25.0956 26.4114 23.943C25.8269 24.6015 24.8545 25.4473 23.4928 25.8157L24.5487 27.3409C24.5487 27.3409 27.4233 27.693 29.7112 24.9355C29.7115 24.9354 29.5745 18.0912 27.1455 14.9626ZM16.8638 22.9996C15.9457 22.9996 15.2016 22.2089 15.2016 21.2334C15.2016 20.2581 15.9457 19.4673 16.8638 19.4673C17.7818 19.4673 18.5259 20.2581 18.5259 21.2334C18.5259 22.2088 17.7818 22.9996 16.8638 22.9996ZM22.9649 22.9996C22.0469 22.9996 21.3027 22.2089 21.3027 21.2334C21.3027 20.2581 22.0469 19.4673 22.9649 19.4673C23.8829 19.4673 24.6271 20.2581 24.6271 21.2334C24.6271 22.2088 23.883 22.9996 22.9649 22.9996Z" fill="#ADB1B8"/>
</svg>
