<svg width="40" height="41" viewBox="0 0 40 41" fill="none" xmlns="http://www.w3.org/2000/svg">
<path opacity="0.1" d="M0 20.3083C0 31.354 8.95431 40.3083 20 40.3083C31.0457 40.3083 40 31.354 40 20.3083C40 9.26266 31.0457 0.30835 20 0.30835C8.95431 0.30835 0 9.26266 0 20.3083Z" fill="white"/>
<path fill-rule="evenodd" clip-rule="evenodd" d="M23.5338 12.4558L23.0414 12.5176C22.7389 12.5823 22.4363 12.6764 22.1516 12.7853C21.0185 13.2765 20.185 14.2619 19.8914 15.4533C19.7342 16.0681 19.7342 16.7123 19.8914 17.3124C19.2863 17.3124 18.6842 17.2329 18.1117 17.077C16.3261 16.6829 14.6621 15.8769 13.2443 14.7267C12.8113 14.3884 12.4138 14.0001 12.0668 13.5766C11.9333 13.4442 11.8117 13.303 11.7019 13.15C11.5151 13.4736 11.3697 13.8178 11.2719 14.1766C10.9723 15.4533 11.3015 16.7946 12.1617 17.786C12.3693 18.036 12.6897 18.1948 12.8943 18.4155C12.7134 18.4478 12.5265 18.4302 12.3515 18.3713C12.0638 18.3213 11.782 18.2448 11.5091 18.1331L11.082 17.9742C11.0316 19.3656 11.7494 20.6716 12.9596 21.3806C13.3392 21.6659 13.7842 21.8365 14.2617 21.9012C14.0066 22.1218 12.8765 22.0277 12.4791 21.9806C12.8765 23.1808 13.8168 24.1103 15.0092 24.5192C15.3918 24.6604 15.7893 24.7251 16.1867 24.7251C15.8575 24.9987 15.4926 25.2311 15.1041 25.4164C14.3566 25.8223 13.5558 26.1165 12.7193 26.2842C12.3545 26.3665 11.9748 26.3489 11.5596 26.4107C11.1354 26.443 10.7083 26.4283 10.2871 26.3665L10.6371 26.5695C11.0019 26.7901 11.3668 26.9784 11.7672 27.1372C12.5295 27.452 13.3096 27.705 14.1045 27.8932C15.9791 28.2874 17.9367 28.2227 19.7817 27.705C23.949 26.4107 26.5859 23.3838 27.5914 18.9214C27.7516 18.086 27.8139 17.2182 27.7842 16.3681L28.416 15.8445C28.947 15.4033 29.4037 14.8826 29.7715 14.3002C29.0508 14.6149 28.2914 14.8238 27.5114 14.9179C27.6715 14.8385 27.8139 14.7267 27.9563 14.6002C28.5614 14.1119 29.0063 13.4677 29.2465 12.7411L28.7512 13.0059C28.1075 13.35 27.4075 13.5795 26.6838 13.6854C25.8741 12.8353 24.7291 12.3793 23.5516 12.4411V12.4558H23.5338Z" fill="#ADB1B8"/>
</svg>
