<svg width="175" height="36" viewBox="0 0 175 36" fill="none" xmlns="http://www.w3.org/2000/svg">
<path d="M145.828 34.8V1.19995H152.548V16.32H152.644L165.172 1.19995H173.14L159.892 16.944L174.628 34.8H166.564L155.86 21.744L152.548 25.632V34.8H145.828Z" fill="url(#paint0_linear_60_3194)"/>
<path d="M137.676 31.824L132.108 35.04H117.084L111.516 31.824V4.17596L117.084 0.959961H132.108L137.676 4.17596V31.824ZM118.236 6.71996V29.28H130.956V6.71996H118.236Z" fill="url(#paint1_linear_60_3194)"/>
<path d="M103.363 31.584L97.7951 34.8H77.2031V1.19995H97.7951L103.363 4.41595V31.584ZM83.9231 6.95995V29.04H96.6431V6.95995H83.9231Z" fill="url(#paint2_linear_60_3194)"/>
<path d="M69.0506 31.824L63.4826 35.04H48.4586L42.8906 31.824V4.17596L48.4586 0.959961H63.4826L69.0506 4.17596V31.824ZM49.6106 6.71996V29.28H62.3306V6.71996H49.6106Z" fill="url(#paint3_linear_60_3194)"/>
<path d="M28.272 34.8V12.624H28.176L20.592 34.8H14.208L6.576 12.336H6.48V34.8H0V1.19995H8.928L17.376 25.92H17.472L25.872 1.19995H34.752V34.8H28.272Z" fill="url(#paint4_linear_60_3194)"/>
<defs>
<linearGradient id="paint0_linear_60_3194" x1="17.92" y1="-3.20005" x2="165.92" y2="40.8" gradientUnits="userSpaceOnUse">
<stop stop-color="#CF8E00"/>
<stop offset="0.683717" stop-color="#7C3890"/>
</linearGradient>
<linearGradient id="paint1_linear_60_3194" x1="17.92" y1="-3.20004" x2="165.92" y2="40.8" gradientUnits="userSpaceOnUse">
<stop stop-color="#CF8E00"/>
<stop offset="0.683717" stop-color="#7C3890"/>
</linearGradient>
<linearGradient id="paint2_linear_60_3194" x1="17.92" y1="-3.20005" x2="165.92" y2="40.8" gradientUnits="userSpaceOnUse">
<stop stop-color="#CF8E00"/>
<stop offset="0.683717" stop-color="#7C3890"/>
</linearGradient>
<linearGradient id="paint3_linear_60_3194" x1="17.92" y1="-3.20005" x2="165.92" y2="40.8" gradientUnits="userSpaceOnUse">
<stop stop-color="#CF8E00"/>
<stop offset="0.683717" stop-color="#7C3890"/>
</linearGradient>
<linearGradient id="paint4_linear_60_3194" x1="17.92" y1="-3.20004" x2="165.92" y2="40.8" gradientUnits="userSpaceOnUse">
<stop stop-color="#CF8E00"/>
<stop offset="0.683717" stop-color="#7C3890"/>
</linearGradient>
</defs>
</svg>
